<?xml version="1.0" encoding="utf-8"?>
<!-- Generator: Adobe Illustrator 21.0.2, SVG Export Plug-In . SVG Version: 6.00 Build 0)  -->
<svg version="1.1" id="Слой_1" xmlns="http://www.w3.org/2000/svg" xmlns:xlink="http://www.w3.org/1999/xlink" x="0px" y="0px"
	 viewBox="0 0 1947.6 512.6" style="enable-background:new 0 0 1947.6 512.6;" xml:space="preserve">
<style type="text/css">
	.st0{fill:#293338;}
</style>
<g>
	<path class="st0" d="M958.4,9.2c-220-22.2-360,7-429.9,29.6v151.3l0.4,0.9c43.3-40.8,97.3-68.2,152.7-86.9v404.1h104V77.9
		c77.1-13.8,144.8-15.4,174.9-18.4L958.4,9.2z"/>
	<path class="st0" d="M21.5,508.2h141.2c0-69,5.5-127.9,14.9-178.3h207v178.3H489V39.9V13.1V4.4C-11.6,4.4,21.5,508.2,21.5,508.2z
		 M384.6,277.3H189.7C232,124.4,316.2,67.4,384.6,47.4V277.3z"/>
	<path class="st0" d="M1466.6,4.4v8.7l0,0v495.1H1571V47.4c95.5,28,222,127.9,222,460.8h141.2C1934.1,508.2,1967.2,4.4,1466.6,4.4z"
		/>
	<g>
		<path class="st0" d="M1264.7,230.9c11.4,17.4,18.9,36.6,22.5,56.4c0.2,1.1,0.5,2.1,0.6,3.2c0.5,3.2,0.9,6.5,1.2,9.8
			c0.1,1.3,0.3,2.5,0.4,3.9c3.3,45.3-13,91.8-48.8,125.1c-62.3,58-159.5,54.2-217.2-8.5c-4.1-4.4-7.7-9-11.1-13.7L984,433.5
			c96.7,101.2,256.4,106.5,359.3,10.8c92.1-85.7,107.5-223.4,43.2-326.5L1264.7,230.9z"/>
		<path class="st0" d="M1048,225.4c-0.2-1.1-0.5-2.1-0.6-3.2c-0.5-3.2-0.9-6.5-1.2-9.8c-0.1-1.3-0.3-2.5-0.4-3.8
			c-3.4-45.4,13-91.8,48.8-125.1c62.3-58,159.5-54.2,217.2,8.5c4,4.3,7.5,8.8,10.8,13.4l28.3-26.3c-96.7-101-256.2-106.2-359-10.5
			c-92,85.7-107.5,223.3-43.2,326.5l121.9-113.4C1059.2,264.2,1051.7,245.1,1048,225.4z"/>
	</g>
</g>
</svg>
